<svg width="240" height="240" viewBox="0 0 240 240" fill="none" xmlns="http://www.w3.org/2000/svg">
<path d="M0 92.0627C0 59.8377 0 43.7253 6.2714 31.4169C11.7879 20.5903 20.5903 11.7879 31.4169 6.2714C43.7253 0 59.8377 0 92.0627 0H147.937C180.162 0 196.275 0 208.583 6.2714C219.41 11.7879 228.212 20.5903 233.729 31.4169C240 43.7253 240 59.8377 240 92.0627V147.937C240 180.162 240 196.275 233.729 208.583C228.212 219.41 219.41 228.212 208.583 233.729C196.275 240 180.162 240 147.937 240H92.0627C59.8377 240 43.7253 240 31.4169 233.729C20.5903 228.212 11.7879 219.41 6.2714 208.583C0 196.275 0 180.162 0 147.937V92.0627Z" fill="#FA6672"/>
<path d="M78.4 44H161.6C168.387 44 173.236 44.0031 177.037 44.3137C180.792 44.6205 183.171 45.2071 185.08 46.1799C188.843 48.0973 191.903 51.1569 193.82 54.9202C194.793 56.8293 195.38 59.2079 195.686 62.9626C195.997 66.764 196 71.6134 196 78.4V161.6C196 168.387 195.997 173.236 195.686 177.037C195.38 180.792 194.793 183.171 193.82 185.08C191.903 188.843 188.843 191.903 185.08 193.82C183.171 194.793 180.792 195.38 177.037 195.686C173.236 195.997 168.387 196 161.6 196H78.4C71.6134 196 66.764 195.997 62.9626 195.686C59.2079 195.38 56.8293 194.793 54.9202 193.82C51.1569 191.903 48.0973 188.843 46.1799 185.08C45.2071 183.171 44.6205 180.792 44.3137 177.037C44.0031 173.236 44 168.387 44 161.6V78.4C44 71.6134 44.0031 66.764 44.3137 62.9626C44.6205 59.2079 45.2071 56.8293 46.1799 54.9202C48.0973 51.1569 51.1569 48.0973 54.9202 46.1799C56.8293 45.2071 59.2079 44.6205 62.9626 44.3137C66.764 44.0031 71.6134 44 78.4 44Z" fill="#FA6672" stroke="white" stroke-width="8"/>
<path d="M73 40H167V200H73V40Z" fill="#FA6672"/>
<path d="M200 73V167L40 167L40 73L200 73Z" fill="#FA6672"/>
<path d="M138.978 64C141.186 63.9948 142.931 65.71 142.937 67.9968L142.942 71.8949C157.266 73.0175 166.728 82.7782 166.743 97.7467L166.8 141.561C166.82 157.881 156.568 167.922 140.133 167.948L99.9898 168C83.6582 168.021 73.2771 157.74 73.2565 141.374L73.2 98.0741C73.1795 83.0069 82.308 73.2722 96.6321 71.9572L96.627 68.0592C96.6218 65.7723 98.3161 64.052 100.575 64.052C102.834 64.0468 104.528 65.7619 104.533 68.0488L104.539 71.687L135.035 71.6454L135.03 68.0072C135.025 65.7204 136.719 64.0052 138.978 64ZM141.073 137.798H141.022C138.66 137.855 136.765 139.835 136.817 142.226C136.822 144.617 138.727 146.587 141.088 146.639C143.496 146.633 145.447 144.653 145.442 142.21C145.442 139.768 143.486 137.798 141.073 137.798ZM98.7679 137.803C96.4062 137.907 94.5579 139.887 94.5631 142.278C94.6709 144.669 96.6218 146.54 98.9835 146.431C101.299 146.327 103.142 144.347 103.034 141.956C102.983 139.617 101.078 137.798 98.7679 137.803ZM119.92 137.777C117.559 137.886 115.716 139.861 115.716 142.252C115.823 144.643 117.774 146.509 120.136 146.405C122.446 146.296 124.295 144.321 124.187 141.925C124.135 139.591 122.231 137.772 119.92 137.777ZM98.7422 119.092C96.3805 119.196 94.5374 121.177 94.5425 123.567C94.6452 125.958 96.6013 127.829 98.963 127.72C101.273 127.616 103.116 125.636 103.009 123.245C102.957 120.906 101.058 119.087 98.7422 119.092ZM119.9 118.91C117.538 119.014 115.69 120.995 115.695 123.385C115.798 125.776 117.754 127.642 120.116 127.538C122.426 127.429 124.269 125.454 124.166 123.063C124.11 120.724 122.21 118.905 119.9 118.91ZM141.052 118.936C138.691 118.988 136.842 120.911 136.848 123.302V123.359C136.899 125.75 138.85 127.564 141.217 127.512C143.527 127.455 145.37 125.475 145.319 123.084C145.211 120.797 143.358 118.931 141.052 118.936ZM135.045 79.6494L104.549 79.691L104.554 83.8957C104.554 86.1357 102.865 87.9028 100.606 87.9028C98.3469 87.908 96.6475 86.1461 96.6475 83.906L96.6424 79.9041C86.6309 80.9071 81.0912 86.7906 81.1066 98.0637L81.1117 99.6801L158.842 99.5762V97.7571C158.621 86.5827 153.015 80.72 142.952 79.8469L142.957 83.8489C142.957 86.0838 141.217 87.8561 139.009 87.8561C136.75 87.8613 135.051 86.0941 135.051 83.8593L135.045 79.6494Z" fill="white"/>
<path d="M40 120H200V161.6C200 175.041 200 181.762 197.384 186.896C195.083 191.412 191.412 195.083 186.896 197.384C181.762 200 175.041 200 161.6 200H78.4C64.9587 200 58.2381 200 53.1042 197.384C48.5883 195.083 44.9168 191.412 42.6158 186.896C40 181.762 40 175.041 40 161.6V120Z" fill="url(#paint0_linear_505_6720)" fill-opacity="0.5"/>
<path d="M36 120C36 118.895 36.8954 118 38 118H202C203.105 118 204 118.895 204 120C204 121.105 203.105 122 202 122H38C36.8954 122 36 121.105 36 120Z" fill="white"/>
<defs>
<linearGradient id="paint0_linear_505_6720" x1="120" y1="120" x2="120" y2="200" gradientUnits="userSpaceOnUse">
<stop stop-color="white"/>
<stop offset="1" stop-color="white" stop-opacity="0"/>
</linearGradient>
</defs>
</svg>
